*********** **** **** *** ******** *********** **** *** **********
*+* +*+*+* *+*+*+ *+* *+* *+* *+* *+* *+*+* *+* *+*
+*+ +*+ +*+*+ +*+ +*+ +*+ +*+ +*+ *+*+*+ +*+ +*+
+$+ +$+ +*+ +$+ +$++*++$++* *$* +$+ +$+ +*+ +$+ +$++*++$
+$+ +$+ +$+ +$+ +$+ +$+ +$+$ +$+ +$+ +$+$+$ +$+
$+$ $+$ $+$ $+$ $+$ $+$ $+$ $+$ $+$ $+$+$ $+$
$$$$$$$$$$$ $$$ $$$ $$$ $$$ $$$$$$$$ $$$$$$$$$$$ $$$ $$$$ $$$$$$$$$$




Another Fine Release Brought to you from - IMAGiNE


********************************************************************************************************************
The Chronicles of Narnia - The Voyage of the Dawn Treader v2 TS XViD - IMAGiNE
********************************************************************************************************************

Ripper ...........: IMAGiNE IMDB Rating.......:6.7/10
Video Codec.......: XVID Release Date......:10/12/10
Audio Codec.......:MP3 Theatre Date......:10/12/10
Audio Bitrate.....:128 Runtime.......:1h 45mn
Subtitles.........:NIL Language..........:ENGLISH
Resolution...... 700 x 328 IMDb URL..........:http://www.imdb.com/title/tt0980970/


DETAILS:

Video
ID : 0
Format : MPEG-4 Visual
Format profile : Advanced Simple@L5
Format settings, BVOP : Yes
Format settings, QPel : No
Format settings, GMC : No warppoints
Format settings, Matrix : Default (H.263)
Muxing mode : Packed bitstream
Codec ID : XVID
Codec ID/Hint : XviD
Duration : 1h 45mn
Bit rate : 1 722 Kbps
Width : 700 pixels
Height : 328 pixels
Display aspect ratio : 2.2:1
Frame rate : 25.000 fps
Color space : YUV
Chroma subsampling : 4:2:0
Bit depth : 8 bits
Scan type : Progressive
Bits/(Pixel*Frame) : 0.300
Stream size : 1.27 GiB (93%)
Writing library : XviD 1.1.2 (UTC 2006-11-01)

Audio
ID : 1
Format : MPEG Audio
Format version : Version 1
Format profile : Layer 3
Codec ID : 55
Codec ID/Hint : MP3
Duration : 1h 45mn
Bit rate mode : Constant
Bit rate : 128 Kbps
Channel(s) : 2 channels
Sampling rate : 44.1 KHz
Stream size : 96.4 MiB (7%)
Alignment : Split accross interleaves
Interleave, duration : 40 ms (1.00 video frame)
Interleave, preload duration : 500 ms



SOURCES:

VIDEO: The.Chronicles.of.Narnia.2010.Chapter.3.TRUEFRENCH.TS.MD.XviD-SERENiTY .. Thanks
AUDIO: Own v2 new line audio

NOTES:

IMAGiNE bringing you another release....The Chronicles of Narnia - The Voyage of the Dawn Treader v2

Ok same video but this time we grabbed ourselfs some better audio,alot better .....also complete line now.
So other then resync our new line nothing else was done ;-)

Enjoy